<svg><symbol id="linkendin" viewBox="0 0 24 24" fill="none" xmlns="http://www.w3.org/2000/svg"><g id="Assets / Social / LinkedIn" clip-path="url(#clip0_22724_9572)"><path id="Vector" d="M3.6 9h3.6v11.4H3.6V9zm1.8-5.7c1.2 0 2.1.9 2.1 2.1-.15 1.05-1.05 2.1-2.1 2.1-1.2 0-2.1-1.05-2.1-2.1 0-1.2.9-2.1 2.1-2.1zM9.3 9h3.45v1.5c.75-1.2 2.1-1.8 3.45-1.8 3.6 0 4.2 2.4 4.2 5.4v6.3h-3.6v-5.55c0-1.35 0-3-1.8-3s-2.1 1.5-2.1 3v5.7H9.3V9zm10.2-9h-15C1.5 0 0 1.5 0 4.5v15c0 3 1.5 4.5 4.5 4.5h15c3 0 4.5-1.5 4.5-4.5v-15c0-3-1.5-4.5-4.5-4.5z" fill="#1178B3"/></g><defs><clipPath id="clip0_22724_9572"><path fill="#fff" d="M0 0h24v24H0z"/></clipPath></defs></symbol></svg>