<svg><symbol id="linkendin" viewBox="0 0 24 24" fill="none" xmlns="http://www.w3.org/2000/svg"><g id="Assets / Social / LinkedIn" clip-path="url(#clip0_22724_9572)"><path id="Vector" d="M3.6 9h3.6v11.4H3.6V9zm1.8-5.7c1.2 0 2.1.9 2.1 2.1-.15 1.05-1.05 2.1-2.1 2.1-1.2 0-2.1-1.05-2.1-2.1 0-1.2.9-2.1 2.1-2.1zM9.3 9h3.45v1.5c.75-1.2 2.1-1.8 3.45-1.8 3.6 0 4.2 2.4 4.2 5.4v6.3h-3.6v-5.55c0-1.35 0-3-1.8-3s-2.1 1.5-2.1 3v5.7H9.3V9zm10.2-9h-15C1.5 0 0 1.5 0 4.5v15c0 3 1.5 4.5 4.5 4.5h15c3 0 4.5-1.5 4.5-4.5v-15c0-3-1.5-4.5-4.5-4.5z" fill="#1178B3"/></g><defs><clipPath id="clip0_22724_9572"><path fill="#fff" d="M0 0h24v24H0z"/></clipPath></defs></symbol><symbol id="telegram" viewBox="0 0 24 24" fill="none" xmlns="http://www.w3.org/2000/svg"><path d="M9 17.941l-1.5-4.5 16.5-12L.933 10.312s-1.008.345-.929.983c.08.637.903.928.903.928l5.363 1.805 2.43 7.73 4.113-3.616-.01-.007 5.41 4.149c1.46.637 1.99-.69 1.99-.69L24 1.44 9 17.94z" fill="#3CACDC"/></symbol><symbol id="face" viewBox="0 0 24 24" fill="none" xmlns="http://www.w3.org/2000/svg"><g clip-path="url(#clip0_22724_9562)"><path d="M22.675 0H1.325C.593 0 0 .593 0 1.325v21.35C0 23.407.593 24 1.325 24h11.494v-9.294H9.69v-3.621h3.129V8.41c0-3.099 1.893-4.784 4.659-4.784 1.324 0 2.463.095 2.794.14v3.24h-1.92c-1.5 0-1.792.72-1.792 1.77v2.31h3.585l-.465 3.63h-3.12V24h6.116c.732 0 1.324-.593 1.324-1.325V1.325C24 .593 23.407 0 22.675 0z" fill="#435695"/></g><defs><clipPath id="clip0_22724_9562"><path fill="#fff" d="M0 0h24v24H0z"/></clipPath></defs></symbol><symbol id="flag" viewBox="0 0 32 32" fill="none" xmlns="http://www.w3.org/2000/svg"><g id="Assets / Advantages / Experience"><path id="Vector" d="M27.113 6.305a.82.82 0 00-.598-.252c-.114 0-.355.094-.723.28-.367.185-.757.392-1.168.623a8.41 8.41 0 01-1.46.624c-.562.185-1.082.28-1.56.28-.442 0-.832-.085-1.168-.253-1.114-.522-2.084-.912-2.907-1.169a8.879 8.879 0 00-2.655-.385c-1.636 0-3.5.532-5.589 1.594-.431.215-.74.381-.94.503l-.199-1.455a2.11 2.11 0 00.738-1.598 2.124 2.124 0 10-4.248 0c0 .766.409 1.431 1.016 1.805l2.87 21.045a1.25 1.25 0 002.476-.337l-1.153-8.46c2.093-1.038 3.903-1.562 5.426-1.562a6.22 6.22 0 011.892.292c.615.195 1.127.407 1.534.637.407.23.887.443 1.44.637.553.195 1.1.292 1.639.292 1.363 0 2.995-.513 4.898-1.54.239-.124.414-.246.524-.365.111-.12.166-.29.166-.51V6.901a.82.82 0 00-.25-.597z" fill="#F0145A"/></g></symbol><symbol id="bag2" viewBox="0 0 26 22" fill="none" xmlns="http://www.w3.org/2000/svg"><g id="Group" fill="#F0145A"><path id="Vector" d="M14.232 13.332v-.558a1.232 1.232 0 10-2.463 0v.558a1.232 1.232 0 102.463 0z"/><path id="Vector_2" d="M15.077 14.014a2.177 2.177 0 01-2.076 1.55 2.177 2.177 0 01-2.077-1.55H2.439a3.47 3.47 0 01-1.496-.34v5.633c0 1.1.9 2 2 2h20.113c1.1 0 2-.9 2-2v-5.633a3.47 3.47 0 01-1.495.34h-8.484z"/><path id="Vector_3" d="M23.477 3.898h-4.8A3.809 3.809 0 0014.923.694h-3.847a3.81 3.81 0 00-3.754 3.204h-4.8c-1.145 0-2.083.9-2.083 2v4.616a2 2 0 002 2h8.39a2.171 2.171 0 01.666-1.466c.012-.012.026-.02.039-.032.086-.08.176-.154.274-.22.036-.023.075-.039.112-.06.081-.046.161-.095.248-.13.069-.03.143-.046.215-.067.062-.019.121-.043.186-.056a2.155 2.155 0 01.862 0c.065.013.124.037.186.056.071.021.145.038.214.067.087.036.167.084.248.13.037.022.076.038.112.061.098.065.188.14.274.22.013.01.027.02.04.032.39.374.637.89.665 1.466h8.39a2 2 0 002-2V5.9c.001-1.101-.936-2.001-2.082-2.001zm-14.229 0a1.93 1.93 0 011.829-1.332h3.846a1.93 1.93 0 011.829 1.332H9.248z"/></g></symbol><symbol id="star" viewBox="0 0 32 32" fill="none" xmlns="http://www.w3.org/2000/svg"><g id="Assets / Advantages / Probono"><path id="Vector" d="M16.097 3.553c-6.845 0-12.413 5.568-12.413 12.413 0 6.845 5.568 12.414 12.413 12.414 6.845 0 12.413-5.569 12.413-12.414S22.942 3.553 16.097 3.553zm6.858 11.506l-3.593 2.6 1.384 4.23a.669.669 0 01-1.027.752l-3.622-2.62-3.621 2.62a.67.67 0 01-1.027-.752l1.385-4.23-3.594-2.6a.668.668 0 01.392-1.21h4.449l1.377-4.211a.67.67 0 011.28 0l1.377 4.21h4.449a.669.669 0 01.392 1.21z" fill="#F0145A"/></g></symbol></svg>