<svg width="32" height="32" fill="none" xmlns="http://www.w3.org/2000/svg"><g id="Assets / Advantages / Probono"><path id="Vector" d="M16.097 3.553c-6.845 0-12.413 5.568-12.413 12.413 0 6.845 5.568 12.414 12.413 12.414 6.845 0 12.413-5.569 12.413-12.414S22.942 3.553 16.097 3.553zm6.858 11.506l-3.593 2.6 1.384 4.23a.669.669 0 01-1.027.752l-3.622-2.62-3.621 2.62a.67.67 0 01-1.027-.752l1.385-4.23-3.594-2.6a.668.668 0 01.392-1.21h4.449l1.377-4.211a.67.67 0 011.28 0l1.377 4.21h4.449a.669.669 0 01.392 1.21z" fill="#F0145A"/></g></svg>