<svg>



  <symbol id="linkendin" width="24" height="24" viewBox="0 0 24 24" fill="none" xmlns="http://www.w3.org/2000/svg">
  <g id="Assets / Social / LinkedIn" clip-path="url(#clip0_22724_9572)">
  <path id="Vector" d="M3.6 9H7.2V20.4H3.6V9ZM5.4 3.3C6.6 3.3 7.5 4.2 7.5 5.4C7.35 6.45 6.45 7.5 5.4 7.5C4.2 7.5 3.3 6.45 3.3 5.4C3.3 4.2 4.2 3.3 5.4 3.3ZM9.3 9H12.75V10.5C13.5 9.3 14.85 8.7 16.2 8.7C19.8 8.7 20.4 11.1 20.4 14.1V20.4H16.8V14.85C16.8 13.5 16.8 11.85 15 11.85C13.2 11.85 12.9 13.35 12.9 14.85V20.55H9.3V9ZM19.5 0H4.5C1.5 0 0 1.5 0 4.5V19.5C0 22.5 1.5 24 4.5 24H19.5C22.5 24 24 22.5 24 19.5V4.5C24 1.5 22.5 0 19.5 0Z" fill="#1178B3"/>
  </g>
  <defs>
  <clipPath id="clip0_22724_9572">
  <rect width="24" height="24" fill="white"/>
  </clipPath>
  </defs>
  </symbol>




  <symbol id="telegram" width="24" height="24" viewBox="0 0 24 24" fill="none" xmlns="http://www.w3.org/2000/svg">
<path d="M9 17.9414L7.5 13.4414L24 1.44141L0.932997 10.3124C0.932997 10.3124 -0.0750025 10.6574 0.00449746 11.2949C0.0839975 11.9324 0.907497 12.2234 0.907497 12.2234L6.27 14.0279L8.7 21.7589L12.813 18.1424L12.8025 18.1349L18.213 22.2839C19.6725 22.9214 20.2035 21.5939 20.2035 21.5939L24 1.44141L9 17.9414Z" fill="#3CACDC"/>
</symbol>



<symbol id="face" width="24" height="24" viewBox="0 0 24 24" fill="none" xmlns="http://www.w3.org/2000/svg">
<g clip-path="url(#clip0_22724_9562)">
<path d="M22.6755 0H1.3245C0.5925 0 0 0.5925 0 1.3245V22.6755C0 23.4075 0.5925 24 1.3245 24H12.819V14.706H9.69V11.085H12.819V8.4105C12.819 5.3115 14.712 3.6255 17.478 3.6255C18.8025 3.6255 19.941 3.7215 20.2725 3.7665V7.0065H18.3525C16.8525 7.0065 16.56 7.7265 16.56 8.7765V11.0865H20.145L19.68 14.7165H16.56V24H22.6755C23.4075 24 24 23.4075 24 22.6755V1.3245C24 0.5925 23.4075 0 22.6755 0Z" fill="#435695"/>
</g>
<defs>
<clipPath id="clip0_22724_9562">
<rect width="24" height="24" fill="white"/>
</clipPath>
</defs>
</symbol>





<symbol id="flag" width="32" height="32" viewBox="0 0 32 32" fill="none" xmlns="http://www.w3.org/2000/svg">
<g id="Assets / Advantages / Experience">
<path id="Vector" d="M27.1135 6.3054C26.9445 6.1374 26.7455 6.0529 26.5155 6.0529C26.401 6.0529 26.1595 6.1469 25.7925 6.3324C25.425 6.5184 25.035 6.7254 24.6245 6.9564C24.213 7.1859 23.726 7.3939 23.164 7.5799C22.6025 7.7654 22.0825 7.8594 21.604 7.8594C21.162 7.8594 20.772 7.7754 20.436 7.6069C19.3215 7.0849 18.352 6.6954 17.529 6.4384C16.706 6.1819 15.821 6.0529 14.8735 6.0529C13.2375 6.0529 11.374 6.5849 9.285 7.6469C8.854 7.8619 8.545 8.0284 8.345 8.1504L8.1465 6.6949C8.595 6.3054 8.8845 5.7379 8.8845 5.0974C8.8845 3.9239 7.9335 2.9729 6.76 2.9729C5.5865 2.9729 4.6355 3.9239 4.6355 5.0974C4.6355 5.8629 5.0445 6.5284 5.6515 6.9024L8.5215 27.9474C8.607 28.5739 9.143 29.0284 9.7585 29.0284C9.8145 29.0284 9.8715 29.0249 9.929 29.0174C10.613 28.9234 11.092 28.2939 10.9985 27.6099L9.845 19.1514C11.938 18.1129 13.7485 17.5894 15.2715 17.5894C15.918 17.5894 16.5485 17.6859 17.163 17.8809C17.778 18.0764 18.2895 18.2884 18.6965 18.5179C19.1035 18.7479 19.584 18.9609 20.1365 19.1549C20.69 19.3499 21.2365 19.4474 21.776 19.4474C23.139 19.4474 24.7715 18.9339 26.674 17.9074C26.913 17.7834 27.088 17.6614 27.1985 17.5419C27.309 17.4224 27.3645 17.2524 27.3645 17.0314V6.9029C27.3645 6.6734 27.281 6.4739 27.1135 6.3054Z" fill="#F0145A"/>
</g>
</symbol>






<symbol id="bag2" width="26" height="22" viewBox="0 0 26 22" fill="none" xmlns="http://www.w3.org/2000/svg">
<g id="Group">
<path id="Vector" d="M14.232 13.332V12.774C14.232 12.0935 13.6805 11.542 13.0005 11.542C12.32 11.542 11.7685 12.0935 11.7685 12.774V13.332C11.7685 14.0125 12.32 14.564 13.0005 14.564C13.68 14.564 14.232 14.0125 14.232 13.332Z" fill="#F0145A"/>
<path id="Vector_2" d="M15.077 14.0136C14.804 14.9071 13.9815 15.5631 13.0005 15.5631C12.019 15.5631 11.1965 14.9071 10.9235 14.0136H2.43898C1.90348 14.0136 1.39748 13.8891 0.943481 13.6731V19.3066C0.943481 20.4066 1.84348 21.3066 2.94348 21.3066H23.0565C24.1565 21.3066 25.0565 20.4066 25.0565 19.3066V13.6736C24.602 13.8896 24.0965 14.0141 23.561 14.0141H15.077V14.0136Z" fill="#F0145A"/>
<path id="Vector_3" d="M23.4775 3.8976H18.677C18.387 2.0846 16.8165 0.693604 14.923 0.693604H11.0765C9.183 0.693604 7.613 2.0846 7.3225 3.8976H2.5225C1.3765 3.8976 0.438995 4.7976 0.438995 5.8976V10.5141C0.438995 11.6186 1.3345 12.5141 2.439 12.5141H10.829C10.8575 11.9386 11.1045 11.4216 11.495 11.0476C11.507 11.0361 11.521 11.0271 11.5335 11.0161C11.62 10.9366 11.71 10.8616 11.8085 10.7966C11.8435 10.7731 11.8835 10.7571 11.92 10.7361C12.001 10.6896 12.081 10.6411 12.1685 10.6051C12.237 10.5766 12.311 10.5601 12.383 10.5386C12.445 10.5201 12.504 10.4956 12.5685 10.4826C12.708 10.4541 12.8525 10.4391 13 10.4391C13.148 10.4391 13.292 10.4546 13.4315 10.4826C13.4955 10.4956 13.5545 10.5201 13.6165 10.5386C13.6885 10.5601 13.7625 10.5766 13.831 10.6056C13.918 10.6416 13.9975 10.6896 14.0785 10.7361C14.1155 10.7576 14.1555 10.7736 14.191 10.7971C14.2895 10.8616 14.379 10.9366 14.4655 11.0161C14.478 11.0276 14.4925 11.0366 14.5045 11.0486C14.8955 11.4226 15.142 11.9396 15.1705 12.5151H23.5605C24.665 12.5151 25.5605 11.6196 25.5605 10.5151V5.8986C25.561 4.7976 24.6235 3.8976 23.4775 3.8976ZM9.248 3.8976C9.503 3.1271 10.2215 2.5656 11.0765 2.5656H14.923C15.778 2.5656 16.4965 3.1271 16.7515 3.8976H9.248Z" fill="#F0145A"/>
</g>
</symbol>




<symbol id="star" width="32" height="32" viewBox="0 0 32 32" fill="none" xmlns="http://www.w3.org/2000/svg">
<g id="Assets / Advantages /  Probono">
<path id="Vector" d="M16.097 3.55298C9.25249 3.55298 3.68399 9.12148 3.68399 15.966C3.68399 22.811 9.25249 28.38 16.097 28.38C22.9415 28.38 28.51 22.811 28.51 15.966C28.5105 9.12148 22.942 3.55298 16.097 3.55298ZM22.9555 15.0585V15.059L19.362 17.659L20.746 21.889C20.768 21.955 20.7795 22.0255 20.7795 22.0975C20.7795 22.467 20.4805 22.767 20.111 22.767C19.964 22.767 19.829 22.72 19.719 22.6405L16.0975 20.021L12.476 22.6405C12.366 22.72 12.231 22.767 12.0845 22.767C11.7145 22.767 11.415 22.4675 11.415 22.0975C11.415 22.025 11.427 21.955 11.449 21.889L12.8335 17.659L9.23999 15.059V15.0585C9.07199 14.9375 8.96299 14.74 8.96299 14.517C8.96299 14.1475 9.26199 13.8485 9.63199 13.8485H14.0805L15.458 9.63798C15.542 9.36448 15.7965 9.16548 16.098 9.16548C16.399 9.16548 16.654 9.36448 16.7375 9.63798L18.115 13.8485H22.5635C22.933 13.8485 23.2325 14.1475 23.2325 14.517C23.232 14.74 23.123 14.9375 22.9555 15.0585Z" fill="#F0145A"/>
</g>
</symbol>



</svg>