<svg>


<symbol id="facebook" viewBox="0 0 24 25" xmlns="http://www.w3.org/2000/svg">
<g clip-path="url(#clip0_156530_2805)">
<path d="M24 12.5733C24 5.90541 18.6274 0.5 12 0.5C5.37258 0.5 0 5.90541 0 12.5733C0 18.5995 4.38823 23.5943 10.125 24.5V16.0633H7.07813V12.5733H10.125V9.91343C10.125 6.88755 11.9165 5.21615 14.6576 5.21615C15.9705 5.21615 17.3438 5.45195 17.3438 5.45195V8.42313H15.8306C14.3399 8.42313 13.875 9.35379 13.875 10.3086V12.5733H17.2031L16.6711 16.0633H13.875V24.5C19.6118 23.5943 24 18.5995 24 12.5733Z" />
</g>
<defs>
<clipPath id="clip0_156530_2805">
<rect width="24" height="24" " transform="translate(0 0.5)"/>
</clipPath>
</defs>
</symbol>




<symbol id="facebook-publ"  viewBox="0 0 24 24"  xmlns="http://www.w3.org/2000/svg">
<g clip-path="url(#clip0_22724_9562)">
<path d="M22.6755 0H1.3245C0.5925 0 0 0.5925 0 1.3245V22.6755C0 23.4075 0.5925 24 1.3245 24H12.819V14.706H9.69V11.085H12.819V8.4105C12.819 5.3115 14.712 3.6255 17.478 3.6255C18.8025 3.6255 19.941 3.7215 20.2725 3.7665V7.0065H18.3525C16.8525 7.0065 16.56 7.7265 16.56 8.7765V11.0865H20.145L19.68 14.7165H16.56V24H22.6755C23.4075 24 24 23.4075 24 22.6755V1.3245C24 0.5925 23.4075 0 22.6755 0Z" />
</g>
<defs>
<clipPath id="clip0_22724_9562">
<rect width="24" height="24" fill="white"/>
</clipPath>
</defs>
</symbol>



<symbol id="telegram" viewBox="0 0 24 24" fill="none" xmlns="http://www.w3.org/2000/svg">
<path d="M9 17.9414L7.5 13.4414L24 1.44141L0.932997 10.3124C0.932997 10.3124 -0.0750025 10.6574 0.00449746 11.2949C0.0839975 11.9324 0.907497 12.2234 0.907497 12.2234L6.27 14.0279L8.7 21.7589L12.813 18.1424L12.8025 18.1349L18.213 22.2839C19.6725 22.9214 20.2035 21.5939 20.2035 21.5939L24 1.44141L9 17.9414Z" />
</symbol>



<symbol id="linkendin"  viewBox="0 0 24 24"  xmlns="http://www.w3.org/2000/svg">
<g id="Assets / Social / LinkedIn" clip-path="url(#clip0_22724_9572)">
<path id="Vector" d="M3.6 9H7.2V20.4H3.6V9ZM5.4 3.3C6.6 3.3 7.5 4.2 7.5 5.4C7.35 6.45 6.45 7.5 5.4 7.5C4.2 7.5 3.3 6.45 3.3 5.4C3.3 4.2 4.2 3.3 5.4 3.3ZM9.3 9H12.75V10.5C13.5 9.3 14.85 8.7 16.2 8.7C19.8 8.7 20.4 11.1 20.4 14.1V20.4H16.8V14.85C16.8 13.5 16.8 11.85 15 11.85C13.2 11.85 12.9 13.35 12.9 14.85V20.55H9.3V9ZM19.5 0H4.5C1.5 0 0 1.5 0 4.5V19.5C0 22.5 1.5 24 4.5 24H19.5C22.5 24 24 22.5 24 19.5V4.5C24 1.5 22.5 0 19.5 0Z" />
</g>
<defs>
<clipPath id="clip0_22724_9572">
<rect width="24" height="24" fill="white"/>
</clipPath>
</defs>
</symbol>







</svg>

